<svg width="255" height="220" viewBox="0 0 255 220" fill="none" xmlns="http://www.w3.org/2000/svg">
<path d="M145 5C202.99 5 250 52.0101 250 110C250 167.99 202.99 215 145 215C144.97 215 144.94 215 144.91 214.999C118.913 214.534 99.5931 211.404 78.9209 200.14C58.5158 189.021 37.1016 170.136 6.43848 139.009C5.02407 137.573 4.60948 135.428 5.3877 133.569C6.16597 131.71 7.98452 130.5 10 130.5H42.0029C40.6897 123.866 40 117.012 40 110C40 52.0101 87.0101 5 145 5Z" fill="#F7E890" stroke="#190A01" stroke-width="10" stroke-linejoin="round"/>
<ellipse cx="203.68" cy="131.061" rx="32.5" ry="10" transform="rotate(4.42759 203.68 131.061)" fill="#E18270"/>
<circle cx="93" cy="95.4537" r="15" fill="#190A01"/>
<circle cx="177" cy="95.4537" r="15" fill="#190A01"/>
<path d="M85.4998 88.9545C110.584 64.1722 132.619 84.8579 133.5 102.454M169.5 88.9545C182.397 72.0879 211 78.9535 217.5 106.954" stroke="#190A01" stroke-width="10" stroke-linecap="round" stroke-linejoin="round"/>
</svg>
